<svg width="32" height="32" viewBox="0 0 32 32" fill="none" xmlns="http://www.w3.org/2000/svg">
  <rect width="32" height="32" rx="6" fill="#111827"/>
  <path d="M10 11C10 9.89543 10.8954 9 12 9H14C15.1046 9 16 9.89543 16 11V12H20V11C20 9.89543 20.8954 9 22 9H24C25.1046 9 26 9.89543 26 11V16C26 17.1046 25.1046 18 24 18H22C20.8954 18 20 17.1046 20 16V15H16V16C16 17.1046 15.1046 18 14 18H12C10.8954 18 10 17.1046 10 16V11Z" fill="white"/>
  <path d="M8 20H24V22H8V20Z" fill="white" opacity="0.7"/>
  <path d="M10 24H22V25H10V24Z" fill="white" opacity="0.5"/>
</svg>